<svg id="Capa_1" enable-background="new 0 0 512 512" height="512" viewBox="0 0 512 512" width="512" xmlns="http://www.w3.org/2000/svg"><g><path d="m89.64 343.38v-187.8c0-4.14-3.36-7.5-7.5-7.5-4.15 0-7.5 3.36-7.5 7.5v187.8c-12.01 3.29-20.87 14.31-20.87 27.35s8.86 24.06 20.87 27.36v39.97c0 4.14 3.35 7.5 7.5 7.5 4.14 0 7.5-3.36 7.5-7.5v-39.97c12.01-3.3 20.86-14.32 20.86-27.36s-8.85-24.06-20.86-27.35zm0 38.4c-2.14 1.47-4.72 2.32-7.5 2.32-2.77 0-5.36-.85-7.5-2.31-3.54-2.41-5.87-6.47-5.87-11.06s2.33-8.65 5.87-11.05c2.14-1.46 4.73-2.31 7.5-2.31 2.78 0 5.36.85 7.5 2.32 3.53 2.4 5.86 6.45 5.86 11.04s-2.33 8.65-5.86 11.05z"/><path d="m157.81 273.39v-117.84c0-4.14-3.36-7.5-7.5-7.5s-7.5 3.36-7.5 7.5v117.85c-12.05 3.29-20.92 14.34-20.92 27.43s8.87 24.14 20.92 27.43v109.8c0 4.14 3.36 7.5 7.5 7.5s7.5-3.36 7.5-7.5v-109.79c12.06-3.29 20.95-14.34 20.95-27.44 0-13.101-8.89-24.15-20.95-27.44zm0 38.6c-2.15 1.45-4.73 2.29-7.5 2.29s-5.35-.85-7.5-2.3c-3.57-2.42-5.92-6.51-5.92-11.15 0-4.63 2.35-8.73 5.92-11.15 2.15-1.45 4.73-2.3 7.5-2.3s5.35.84 7.5 2.29c3.59 2.42 5.95 6.52 5.95 11.16 0 4.649-2.36 8.75-5.95 11.16z"/><path d="m226.01 195.469v-39.92c0-4.14-3.36-7.5-7.5-7.5s-7.5 3.36-7.5 7.5v39.92c-12.06 3.29-20.95 14.35-20.95 27.44 0 13.08 8.89 24.14 20.95 27.43v187.72c0 4.14 3.36 7.5 7.5 7.5s7.5-3.36 7.5-7.5v-187.719c12.06-3.29 20.95-14.34 20.95-27.43 0-13.1-8.89-24.15-20.95-27.441zm0 38.591c-2.15 1.45-4.73 2.29-7.5 2.29-2.78 0-5.36-.85-7.5-2.29-3.59-2.42-5.95-6.51-5.95-11.15s2.36-8.74 5.95-11.16c2.14-1.44 4.72-2.29 7.5-2.29 2.77 0 5.35.84 7.5 2.29 3.59 2.41 5.95 6.51 5.95 11.16 0 4.64-2.36 8.74-5.95 11.15z"/><path d="m279.21 318.52v119.54c0 4.14 3.36 7.5 7.5 7.5 4.15 0 7.5-3.36 7.5-7.5v-119.55c12.05-3.29 20.92-14.34 20.92-27.43s-8.87-24.14-20.92-27.43v-108.1c0-4.14-3.35-7.5-7.5-7.5-4.14 0-7.5 3.36-7.5 7.5v108.09c-12.05 3.29-20.94 14.35-20.94 27.44s8.89 24.149 20.94 27.44zm0-38.6c2.14-1.44 4.72-2.29 7.5-2.29 2.77 0 5.35.85 7.5 2.3 3.57 2.42 5.92 6.51 5.92 11.15 0 4.63-2.35 8.73-5.92 11.15-2.15 1.45-4.73 2.3-7.5 2.3-2.78 0-5.36-.85-7.5-2.29-3.58-2.43-5.94-6.52-5.94-11.16s2.36-8.74 5.94-11.16z"/><path d="m368.749 391.892h-31.777c-6.871 0-12.46 5.603-12.46 12.488v25.483c0 6.871 5.59 12.461 12.46 12.461h31.777c6.886 0 12.489-5.59 12.489-12.461v-25.483c-.001-6.886-5.603-12.488-12.489-12.488zm-2.512 35.432h-26.726v-20.433h26.726z"/><path d="m447.807 391.892h-31.777c-6.871 0-12.46 5.603-12.46 12.488v25.483c0 6.871 5.59 12.461 12.46 12.461h31.777c6.886 0 12.489-5.59 12.489-12.461v-25.483c0-6.886-5.603-12.488-12.489-12.488zm-2.511 35.432h-26.726v-20.433h26.726z"/><path d="m392.404 284.023c18.16 0 35.23-7.078 48.064-19.928 26.502-26.503 26.502-69.625 0-96.129-26.503-26.502-69.625-26.501-96.128 0-.006.006-.012.013-.018.02-26.483 26.505-26.478 69.612.015 96.105 12.836 12.854 29.907 19.932 48.067 19.932zm-42.379-99.763 28.047 28.047c1.464 1.464 3.384 2.196 5.303 2.196s3.839-.732 5.303-2.196c2.929-2.93 2.929-7.678 0-10.607l-28.046-28.046c20.735-15.566 50.375-13.932 69.23 4.92 20.653 20.655 20.654 54.262-.003 74.919-10.003 10.016-23.305 15.531-37.454 15.531-14.15 0-27.452-5.516-37.458-15.535-18.854-18.853-20.488-48.493-4.922-69.229z"/><path d="m82.136 79.177c4.142 0 7.5-3.372 7.5-7.515s-3.358-7.5-7.5-7.5-7.5 3.357-7.5 7.5v.028c0 4.143 3.358 7.487 7.5 7.487z"/><path d="m150.31 79.163c4.142 0 7.5-3.372 7.5-7.515s-3.358-7.5-7.5-7.5-7.5 3.357-7.5 7.5v.028c0 4.143 3.358 7.487 7.5 7.487z"/><path d="m218.512 79.19c4.142 0 7.5-3.371 7.5-7.514s-3.358-7.5-7.5-7.5-7.5 3.357-7.5 7.5v.028c0 4.144 3.358 7.486 7.5 7.486z"/><path d="m336.802 370.126h111.204c6.824 0 12.375-5.539 12.375-12.348v-31.748c0-6.824-5.552-12.376-12.375-12.376h-40.649c-4.142 0-7.5 3.357-7.5 7.5s3.358 7.5 7.5 7.5h38.024v26.472h-105.955v-26.472h33.319c4.142 0 7.5-3.357 7.5-7.5s-3.358-7.5-7.5-7.5h-35.943c-6.824 0-12.375 5.552-12.375 12.376v31.748c-.001 6.809 5.551 12.348 12.375 12.348z"/><path d="m498.405 24.293h-484.81c-7.496 0-13.595 6.099-13.595 13.595v436.225c0 7.496 6.099 13.595 13.595 13.595h484.811c7.496 0 13.595-6.099 13.595-13.595v-436.225c-.001-7.496-6.1-13.595-13.596-13.595zm-1.405 81.609h-224.602c-4.142 0-7.5 3.357-7.5 7.5s3.358 7.5 7.5 7.5h224.602v351.805h-482v-351.805h222.787c4.142 0 7.5-3.357 7.5-7.5s-3.358-7.5-7.5-7.5h-222.787v-66.609h482z"/><path d="m286.713 79.204c4.142 0 7.5-3.371 7.5-7.514s-3.358-7.5-7.5-7.5-7.5 3.357-7.5 7.5v.028c0 4.143 3.358 7.486 7.5 7.486z"/></g></svg>